<?xml version="1.0" encoding="UTF-8" standalone="no"?>
<!-- Created with Inkscape (http://www.inkscape.org/) -->

<svg
   xmlns:dc="http://purl.org/dc/elements/1.1/"
   xmlns:cc="http://creativecommons.org/ns#"
   xmlns:rdf="http://www.w3.org/1999/02/22-rdf-syntax-ns#"
   xmlns:svg="http://www.w3.org/2000/svg"
   xmlns="http://www.w3.org/2000/svg"
   xmlns:xlink="http://www.w3.org/1999/xlink"
   xmlns:sodipodi="http://sodipodi.sourceforge.net/DTD/sodipodi-0.dtd"
   xmlns:inkscape="http://www.inkscape.org/namespaces/inkscape"
   width="2429.625"
   height="984.59375"
   id="svg2"
   version="1.1"
   inkscape:version="0.48.4 r9939"
   sodipodi:docname="snapscape.svg">
  <defs
     id="defs4">
    <linearGradient
       id="linearGradient4215">
      <stop
         style="stop-color:#ffffff;stop-opacity:1;"
         offset="0"
         id="stop4217" />
      <stop
         style="stop-color:#3f4554;stop-opacity:1;"
         offset="1"
         id="stop4219" />
    </linearGradient>
    <linearGradient
       id="linearGradient3816">
      <stop
         style="stop-color:#000000;stop-opacity:1;"
         offset="0"
         id="stop3818" />
      <stop
         style="stop-color:#f14b4b;stop-opacity:1;"
         offset="1"
         id="stop3820" />
    </linearGradient>
    <inkscape:perspective
       sodipodi:type="inkscape:persp3d"
       inkscape:vp_x="-446.41893 : 655.55917 : 1"
       inkscape:vp_y="0 : 677.14309 : 0"
       inkscape:vp_z="900.47794 : 655.55917 : 1"
       inkscape:persp3d-origin="227.02947 : 536.79255 : 1"
       id="perspective3012" />
    <radialGradient
       inkscape:collect="always"
       xlink:href="#linearGradient3816-1"
       id="radialGradient4123-0"
       cx="1336.7078"
       cy="225.77609"
       fx="1336.7078"
       fy="225.77609"
       r="82.636269"
       gradientUnits="userSpaceOnUse" />
    <linearGradient
       id="linearGradient3816-1">
      <stop
         style="stop-color:#000000;stop-opacity:1;"
         offset="0"
         id="stop3818-2" />
      <stop
         style="stop-color:#f14b4b;stop-opacity:1;"
         offset="1"
         id="stop3820-6" />
    </linearGradient>
    <radialGradient
       inkscape:collect="always"
       xlink:href="#linearGradient4215"
       id="radialGradient4231"
       cx="1051.3007"
       cy="157.34184"
       fx="1051.3007"
       fy="157.34184"
       r="125.70916"
       gradientTransform="matrix(1.9167961,-0.07514725,0.03952744,1.0082344,-970.04764,77.234408)"
       gradientUnits="userSpaceOnUse" />
    <radialGradient
       inkscape:collect="always"
       xlink:href="#linearGradient4215"
       id="radialGradient4294"
       gradientUnits="userSpaceOnUse"
       gradientTransform="matrix(1.9167961,-0.07514725,0.03952744,1.0082344,-970.04764,77.234408)"
       cx="1051.3007"
       cy="157.34184"
       fx="1051.3007"
       fy="157.34184"
       r="125.70916" />
  </defs>
  <sodipodi:namedview
     id="base"
     pagecolor="#ffffff"
     bordercolor="#666666"
     borderopacity="1.0"
     inkscape:pageopacity="0.0"
     inkscape:pageshadow="2"
     inkscape:zoom="0.52928546"
     inkscape:cx="985.79207"
     inkscape:cy="459.95825"
     inkscape:document-units="px"
     inkscape:current-layer="sun"
     showgrid="false"
     inkscape:window-width="1920"
     inkscape:window-height="1034"
     inkscape:window-x="0"
     inkscape:window-y="24"
     inkscape:window-maximized="1"
     fit-margin-top="0"
     fit-margin-left="0"
     fit-margin-right="0"
     fit-margin-bottom="0" />
  <metadata
     id="metadata7">
    <rdf:RDF>
      <cc:Work
         rdf:about="">
        <dc:format>image/svg+xml</dc:format>
        <dc:type
           rdf:resource="http://purl.org/dc/dcmitype/StillImage" />
        <dc:title />
      </cc:Work>
    </rdf:RDF>
  </metadata>
  <g
     inkscape:label="Layer 1"
     inkscape:groupmode="layer"
     id="layer1">
    <rect
       style="fill:#6060b5;fill-opacity:1;stroke:#e91010;stroke-width:1.61333406;stroke-miterlimit:0.1;stroke-opacity:1;stroke-dasharray:none;stroke-dashoffset:0"
       id="myrect"
       width="2409.0762"
       height="473.57239"
       x="-104.68089"
       y="0.4506855"
       inkscape:label="#rect3824" />
    <g
       id="sun"
       transform="translate(524.19795,548.49621)"
       inkscape:label="#g3840"
       inkscape:transform-center-y="15.114717"
       inkscape:transform-center-x="-9.4466982">
      <title
         id="title3844">my sun</title>
      <path
         transform="translate(288.57143,-274.28571)"
         inkscape:transform-center-y="-15.731819"
         inkscape:transform-center-x="-23.050644"
         d="m -117.14286,495.21933 -170.30304,-359.00508 49.7837,394.21993 -51.02914,-394.06065 -74.47355,390.30945 73.23984,-390.54283 -191.4408,348.19275 190.3396,-348.79594 -289.6685,271.99252 288.80758,-272.90648 -359.54142,169.16777 359.00508,-170.30304 -394.21993,49.7837 394.06065,-51.02914 -390.30944,-74.473551 390.54282,73.239841 -348.19275,-191.440805 348.79594,190.339595 -271.99252,-289.6685 272.90648,288.80759 -169.16776,-359.54143 170.30303,359.00508 -49.7837,-394.21993 51.02915,394.06065 74.47354,-390.30944 -73.23984,390.54282 L -95.777034,-219.60854 -286.11663,129.18741 3.5518691,-142.80511 -285.25572,130.10137 74.285708,-39.0664 -284.71937,131.23664 109.50056,81.452937 -284.56009,132.48208 105.74935,206.95563 -284.79347,133.71579 63.399276,325.15659 -285.39666,134.81699 -13.404145,424.48549 -286.31063,135.67791 z"
         inkscape:randomized="0"
         inkscape:rounded="0"
         inkscape:flatsided="false"
         sodipodi:arg2="1.2865176"
         sodipodi:arg1="1.129438"
         sodipodi:r2="4.0131416"
         sodipodi:r1="401.31418"
         sodipodi:cy="132.36218"
         sodipodi:cx="-288.57144"
         sodipodi:sides="20"
         id="path3838"
         style="fill:#d9e61d;fill-opacity:1;stroke:#e91010;stroke-width:0.89999998;stroke-miterlimit:0.1;stroke-opacity:1;stroke-dasharray:none;stroke-dashoffset:0"
         sodipodi:type="star" />
      <path
         transform="translate(-588.57143,-408.57143)"
         inkscape:label="#path3826"
         d="m 735.71429,268.07648 a 150,150 0 1 1 -300,0 150,150 0 1 1 300,0 z"
         sodipodi:ry="150"
         sodipodi:rx="150"
         sodipodi:cy="268.07648"
         sodipodi:cx="585.71429"
         id="suncircle"
         style="fill:#d9e61d;fill-opacity:1;stroke:#e91010;stroke-width:0.89999998;stroke-miterlimit:0.1;stroke-opacity:1;stroke-dasharray:none;stroke-dashoffset:0"
         sodipodi:type="arc">
        <title
           id="title3966">suncircle</title>
      </path>
    </g>
    <g
       id="moon"
       transform="translate(-96.356274,83.130941)"
       inkscape:label="#g4053">
      <g
         id="g4050"
         style="fill:url(#radialGradient4231);fill-opacity:1"
         transform="translate(-13.225378,154.92585)">
        <path
           sodipodi:type="arc"
           style="fill:url(#radialGradient4294);fill-opacity:1;stroke:none"
           id="path4016"
           sodipodi:cx="1104.2021"
           sodipodi:cy="209.77104"
           sodipodi:rx="125.70916"
           sodipodi:ry="126.84167"
           d="m 1229.9113,209.77104 c 0,70.05272 -56.2819,126.84167 -125.7092,126.84167 -69.4272,0 -125.70911,-56.78895 -125.70911,-126.84167 0,-70.05272 56.28191,-126.841665 125.70911,-126.841665 69.4273,0 125.7092,56.788945 125.7092,126.841665 z" />
      </g>
    </g>
    <rect
       style="fill:#5d3636;fill-opacity:1;stroke:#e91010;stroke-width:1.19189107;stroke-miterlimit:0.1;stroke-opacity:1;stroke-dasharray:none;stroke-dashoffset:0"
       id="rect3028"
       width="2428.4419"
       height="515.15314"
       x="-105.59962"
       y="468.49167" />
    <path
       style="fill:#ffffff;fill-opacity:0.80821922;stroke:none"
       mask="none"
       clip-path="none"
       d="M 926.20668,707.44845 538.68129,473.01634 817.48452,797.55902 535.50958,474.3252 680.5342,855.37405 533.67679,476.45867 528.7614,875.23419 530.27807,475.78372 377.02269,855.19542 527.40153,475.02215 240.17131,797.21926 524.6279,474.07333 131.60321,706.98081 524.67971,470.49575 61.945814,593.31325 520.22639,469.15318 38.017674,467.34315 509.7247,465.30782 l 7.87726,0.83622 -4.69724,-1.05033 -2.95726,-0.002 7.03773,1.31036 19.95935,-2.00898 -10.95361,2.51501 -0.37361,3.94595 2.07765,-6.67601 21.34427,1.75327 -17.12917,-1.00296 5.58086,16.67092 -5.19118,-16.25789 17.97523,0.0213 -7.50558,2.36562 1.9393,3.22627 3.91513,-5.70881 -15.16708,11.95758 14.95441,-12.33258 471.79044,3.05032 -471.70705,2.03532 c 149.18789,41.30216 298.37578,82.60432 447.56367,123.90648 L 541.71928,470.84562 z"
       id="path3974"
       inkscape:connector-curvature="0"
       sodipodi:nodetypes="ccccccccccccccccccccccccccccccccccccccccc" />
    <g
       id="box"
       inkscape:label="#g3908"
       transform="translate(310.01364,121.8527)">
      <path
         inkscape:connector-curvature="0"
         id="path3948"
         style="fill:#afafde;fill-opacity:1;fill-rule:evenodd;stroke:none"
         d="m -263.27507,446.55631 124.15612,26.07385 126.721781,-12.67178 -143.804201,-20.13342 z" />
      <path
         inkscape:connector-curvature="0"
         id="path3950"
         style="fill:#353564;fill-opacity:1;fill-rule:evenodd;stroke:none"
         d="m -263.27507,161.1504 0,285.40591 107.0737,-6.73135 0,-255.92518 z" />
      <path
         inkscape:connector-curvature="0"
         id="path3952"
         style="fill:#e9e9ff;fill-opacity:1;fill-rule:evenodd;stroke:none"
         d="m -156.20137,183.89978 143.804201,-68.04329 0,344.10189 -143.804201,-20.13342 z" />
      <path
         inkscape:connector-curvature="0"
         id="path3954"
         style="fill:#4d4d9f;fill-opacity:1;fill-rule:evenodd;stroke:none"
         d="M -263.27507,161.1504 -139.11895,73.030687 -12.397169,115.85649 -156.20137,183.89978 z" />
      <path
         inkscape:connector-curvature="0"
         id="wall"
         style="fill:#d7d7ff;fill-opacity:1;fill-rule:evenodd;stroke:none"
         d="m -140.40341,74.315147 0,399.599473 126.721781,-12.67178 0,-344.10189 z"
         inkscape:label="#path3956">
        <title
           id="title3968">suncircle</title>
      </path>
      <path
         inkscape:connector-curvature="0"
         id="path3958"
         style="fill:#8686bf;fill-opacity:1;fill-rule:evenodd;stroke:none"
         d="m -263.27507,161.1504 124.15612,-88.119713 0,399.599473 -124.15612,-26.07385 z" />
      <path
         style="fill:#3f4554;fill-opacity:0.80821922;stroke:none"
         d="M 459.83691,573.25836 -50.093965,622.06787 -64.223032,568.12052 344.23545,545.00023 z"
         id="path3970"
         inkscape:connector-curvature="0"
         transform="translate(-601.1276,-100.18792)" />
    </g>
  </g>
</svg>
