<?xml version="1.0" encoding="UTF-8" standalone="no"?>
<!-- Created with Inkscape (http://www.inkscape.org/) -->

<svg
   xmlns:dc="http://purl.org/dc/elements/1.1/"
   xmlns:cc="http://creativecommons.org/ns#"
   xmlns:rdf="http://www.w3.org/1999/02/22-rdf-syntax-ns#"
   xmlns:svg="http://www.w3.org/2000/svg"
   xmlns="http://www.w3.org/2000/svg"
   xmlns:sodipodi="http://sodipodi.sourceforge.net/DTD/sodipodi-0.dtd"
   xmlns:inkscape="http://www.inkscape.org/namespaces/inkscape"
   width="744.09448819"
   height="1052.3622047"
   id="svg3030"
   version="1.1"
   inkscape:version="0.48.4 r9939"
   sodipodi:docname="triangle.svg">
  <defs
     id="defs3032" />
  <sodipodi:namedview
     id="base"
     pagecolor="#ffffff"
     bordercolor="#666666"
     borderopacity="1.0"
     inkscape:pageopacity="0.0"
     inkscape:pageshadow="2"
     inkscape:zoom="1.9928571"
     inkscape:cx="148.76692"
     inkscape:cy="921.98986"
     inkscape:document-units="px"
     inkscape:current-layer="layer1"
     showgrid="false"
     inkscape:window-width="1280"
     inkscape:window-height="754"
     inkscape:window-x="0"
     inkscape:window-y="24"
     inkscape:window-maximized="1" />
  <metadata
     id="metadata3035">
    <rdf:RDF>
      <cc:Work
         rdf:about="">
        <dc:format>image/svg+xml</dc:format>
        <dc:type
           rdf:resource="http://purl.org/dc/dcmitype/StillImage" />
      </cc:Work>
    </rdf:RDF>
  </metadata>
  <g
     inkscape:label="Layer 1"
     inkscape:groupmode="layer"
     id="layer1">
    <g
       id="g3831"
       transform="translate(-149.53405,-297.06094)"
       style="fill:#cccccc;fill-opacity:1">
      <path
         sodipodi:nodetypes="cccc"
         inkscape:connector-curvature="0"
         id="path3038"
         d="m 309.53405,300 -160,249.42312 320,0 z"
         style="fill:#cccccc;fill-opacity:1;stroke:#000000;stroke-width:8;stroke-linecap:butt;stroke-linejoin:miter;stroke-miterlimit:4;stroke-opacity:1;stroke-dasharray:none" />
    </g>
    <path
       sodipodi:type="arc"
       style="fill:#e6e6e6;stroke:#000000;stroke-width:7.2587285;stroke-miterlimit:4;stroke-opacity:1;stroke-dasharray:none"
       id="path3808"
       sodipodi:cx="-1132.8572"
       sodipodi:cy="379.50504"
       sodipodi:rx="118.57143"
       sodipodi:ry="41.42857"
       d="m -1014.2858,379.50504 a 118.57143,41.42857 0 1 1 -237.1428,0 118.57143,41.42857 0 1 1 237.1428,0 z"
       transform="matrix(0.81502499,0,0,0.72778813,1082.1497,-114.91236)" />
    <path
       sodipodi:type="arc"
       style="fill:#ffffff;stroke:#000000;stroke-width:6.03100014;stroke-miterlimit:4;stroke-opacity:1;stroke-dasharray:none;stroke-dashoffset:0"
       id="path3810"
       sodipodi:cx="-672.85712"
       sodipodi:cy="356.64789"
       sodipodi:rx="32.857143"
       sodipodi:ry="32.857143"
       d="m -639.99997,356.64789 a 32.857143,32.857143 0 1 1 -65.71429,0 32.857143,32.857143 0 1 1 65.71429,0 z"
       transform="matrix(0.89508883,0,0,0.89508883,761.93921,-158.34915)"
       inkscape:label="iris"
       label="iris" />
    <path
       sodipodi:type="spiral"
       style="fill:none;stroke:#000000;stroke-width:1px;stroke-linecap:butt;stroke-linejoin:miter;stroke-opacity:1"
       id="path3949"
       sodipodi:cx="158.56631"
       sodipodi:cy="161.17938"
       sodipodi:expansion="1"
       sodipodi:revolution="3"
       sodipodi:radius="27.341915"
       sodipodi:argument="-18.1031"
       sodipodi:t0="0"
       d="m 158.56631,161.17938 c 1.00637,0.93089 -0.7583,1.81583 -1.54719,1.67264 -2.13782,-0.38801 -2.58431,-3.08953 -1.79809,-4.76702 1.40637,-3.00064 5.34257,-3.4991 7.98686,-1.92354 3.8806,2.3122 4.43957,7.62565 2.04899,11.20669 -3.18627,4.77296 -9.91933,5.3909 -14.42652,2.17444 -5.67185,-4.04758 -6.34783,-12.21804 -2.29989,-17.64635 4.90259,-6.57442 14.51958,-7.308 20.86618,-2.42535 7.47925,5.75403 8.27019,16.8229 2.5508,24.08602 -6.60327,8.38556 -19.12739,9.23375 -27.30586,2.67625 -9.29288,-7.45105 -10.19824,-21.43271 -2.80169,-30.52569 8.29781,-10.20094 23.73863,-11.16344 33.74552,-2.92714 11.10954,9.14384 12.12914,26.045 3.05259,36.96535"
       transform="translate(-0.5017921,0.5017921)" />
  </g>
</svg>
